<svg width="40" height="40" viewBox="0 0 40 40" fill="none" xmlns="http://www.w3.org/2000/svg">
<rect width="40" height="40" rx="20" fill="#EAEAEA"/>
<path d="M23 31.0268V27.1568C23.0375 26.68 22.9731 26.2006 22.811 25.7506C22.6489 25.3006 22.3929 24.8902 22.06 24.5468C25.2 24.1968 28.5 23.0068 28.5 17.5468C28.4997 16.1506 27.9627 14.808 27 13.7968C27.4559 12.5753 27.4236 11.2251 26.91 10.0268C26.91 10.0268 25.73 9.67679 23 11.5068C20.708 10.8856 18.292 10.8856 16 11.5068C13.27 9.67679 12.09 10.0268 12.09 10.0268C11.5764 11.2251 11.5441 12.5753 12 13.7968C11.0301 14.8155 10.4925 16.1703 10.5 17.5768C10.5 22.9968 13.8 24.1868 16.94 24.5768C16.611 24.9168 16.3573 25.3222 16.1953 25.7667C16.0334 26.2112 15.9668 26.6849 16 27.1568V31.0268M16 28.0268C11 29.5268 11 25.5268 9 25.0268L16 28.0268Z" stroke="black" stroke-width="2" stroke-linecap="round" stroke-linejoin="round"/>
</svg>
